<svg width="12" height="13" viewBox="0 0 12 13" fill="none" xmlns="http://www.w3.org/2000/svg">
<path d="M9.99986 3.99992H1.99993C1.44765 3.99992 0.999939 4.44763 0.999939 4.99991V9.99986C0.999939 10.5521 1.44765 10.9999 1.99993 10.9999H9.99986C10.5521 10.9999 10.9998 10.5521 10.9998 9.99986V4.99991C10.9998 4.44763 10.5521 3.99992 9.99986 3.99992Z" stroke="#1D242D" stroke-linecap="round" stroke-linejoin="round"/>
<path d="M7.9999 10.9998V2.99985C7.9999 2.73463 7.89455 2.48028 7.70701 2.29275C7.51948 2.10521 7.26513 1.99986 6.99991 1.99986H4.99993C4.73472 1.99986 4.48036 2.10521 4.29283 2.29275C4.1053 2.48028 3.99994 2.73463 3.99994 2.99985V10.9998" stroke="#1D242D" stroke-linecap="round" stroke-linejoin="round"/>
</svg>
