<svg width="16" height="17" viewBox="0 0 16 17" fill="none" xmlns="http://www.w3.org/2000/svg">
<g id="Feather Icons/fi:phone-call" clip-path="url(#clip0_4760_15050)">
<path id="Vector" d="M10.0336 3.83317C10.6848 3.96021 11.2832 4.27868 11.7523 4.74779C12.2214 5.21691 12.5399 5.81535 12.667 6.4665M10.0336 1.1665C11.3865 1.31679 12.648 1.92262 13.6111 2.88451C14.5742 3.8464 15.1816 5.10718 15.3336 6.45984M14.667 11.7798V13.7798C14.6677 13.9655 14.6297 14.1493 14.5553 14.3194C14.4809 14.4895 14.3718 14.6422 14.235 14.7677C14.0982 14.8933 13.9367 14.9888 13.7608 15.0483C13.5849 15.1078 13.3985 15.1299 13.2136 15.1132C11.1622 14.8903 9.19162 14.1893 7.46028 13.0665C5.8495 12.0429 4.48384 10.6773 3.46028 9.0665C2.3336 7.32731 1.63244 5.34717 1.41361 3.2865C1.39695 3.10215 1.41886 2.91634 1.47795 2.74092C1.53703 2.5655 1.63199 2.4043 1.75679 2.26758C1.88159 2.13087 2.03348 2.02164 2.20281 1.94685C2.37213 1.87206 2.55517 1.83334 2.74028 1.83317H4.74028C5.06382 1.82999 5.37748 1.94456 5.62279 2.15553C5.8681 2.3665 6.02833 2.65947 6.07362 2.97984C6.15803 3.61988 6.31458 4.24832 6.54028 4.85317C6.62998 5.09179 6.64939 5.35111 6.59622 5.60042C6.54305 5.84973 6.41952 6.07858 6.24028 6.25984L5.39362 7.1065C6.34265 8.77553 7.72459 10.1575 9.39362 11.1065L10.2403 10.2598C10.4215 10.0806 10.6504 9.95707 10.8997 9.9039C11.149 9.85073 11.4083 9.87014 11.6469 9.95984C12.2518 10.1855 12.8802 10.3421 13.5203 10.4265C13.8441 10.4722 14.1399 10.6353 14.3513 10.8848C14.5627 11.1344 14.6751 11.4529 14.667 11.7798Z" stroke="white" stroke-linecap="round" stroke-linejoin="round"/>
</g>
<defs>
<clipPath id="clip0_4760_15050">
<rect width="16" height="16" fill="white" transform="translate(0 0.5)"/>
</clipPath>
</defs>
</svg>
