<svg width="24" height="25" viewBox="0 0 24 25" fill="none" xmlns="http://www.w3.org/2000/svg">
<g clip-path="url(#clip0_2738_6726)">
<path d="M21.4059 0.935547H18.0469C17.6586 0.935547 17.3438 1.25036 17.3438 1.63867C17.3438 2.02698 17.6586 2.3418 18.0469 2.3418H21.4059C22.0609 2.3418 22.5938 2.87467 22.5938 3.52966V6.88867C22.5938 7.27698 22.9086 7.5918 23.2969 7.5918C23.6852 7.5918 24 7.27698 24 6.88867V3.52966C24 2.09927 22.8363 0.935547 21.4059 0.935547Z" fill="white"/>
<path d="M0.703125 7.5918C1.09144 7.5918 1.40625 7.27698 1.40625 6.88867V3.52966C1.40625 2.87467 1.93913 2.3418 2.59406 2.3418H5.95312C6.34144 2.3418 6.65625 2.02698 6.65625 1.63867C6.65625 1.25036 6.34144 0.935547 5.95312 0.935547H2.59406C1.16372 0.935547 0 2.09927 0 3.52966V6.88867C0 7.27698 0.314812 7.5918 0.703125 7.5918Z" fill="white"/>
<path d="M5.95312 23.5293H2.59406C1.93913 23.5293 1.40625 22.9964 1.40625 22.3414V18.9824C1.40625 18.5941 1.09144 18.2793 0.703125 18.2793C0.314812 18.2793 0 18.5941 0 18.9824V22.3414C0 23.7718 1.16372 24.9355 2.59406 24.9355H5.95312C6.34144 24.9355 6.65625 24.6207 6.65625 24.2324C6.65625 23.8441 6.34144 23.5293 5.95312 23.5293Z" fill="white"/>
<path d="M23.2969 18.2793C22.9086 18.2793 22.5938 18.5941 22.5938 18.9824V22.3414C22.5938 22.9964 22.0609 23.5293 21.4059 23.5293H18.0469C17.6586 23.5293 17.3438 23.8441 17.3438 24.2324C17.3438 24.6207 17.6586 24.9355 18.0469 24.9355H21.4059C22.8363 24.9355 24 23.7718 24 22.3414V18.9824C24 18.5941 23.6852 18.2793 23.2969 18.2793Z" fill="white"/>
<path d="M16.0145 6.0918H18.2446C18.5491 6.0918 18.7969 6.33953 18.7969 6.64408V8.87411C18.7969 9.26242 19.1117 9.57723 19.5 9.57723C19.8883 9.57723 20.2031 9.26242 20.2031 8.87411V6.64408C20.2031 5.56412 19.3245 4.68555 18.2446 4.68555H16.0145C15.6262 4.68555 15.3114 5.00036 15.3114 5.38867C15.3114 5.77698 15.6262 6.0918 16.0145 6.0918Z" fill="white"/>
<path d="M3.79688 6.64408V8.87411C3.79688 9.26242 4.11169 9.57723 4.5 9.57723C4.88831 9.57723 5.20312 9.26242 5.20312 8.87411V6.64408C5.20312 6.33953 5.45091 6.0918 5.75541 6.0918H7.98548C8.3738 6.0918 8.68861 5.77698 8.68861 5.38867C8.68861 5.00036 8.3738 4.68555 7.98548 4.68555H5.75541C4.6755 4.68555 3.79688 5.56412 3.79688 6.64408Z" fill="white"/>
<path d="M7.98548 19.6855H5.75541C5.45086 19.6855 5.20312 19.4378 5.20312 19.1333V16.9032C5.20312 16.5149 4.88831 16.2001 4.5 16.2001C4.11169 16.2001 3.79688 16.5149 3.79688 16.9032V19.1333C3.79688 20.2132 4.6755 21.0918 5.75541 21.0918H7.98548C8.3738 21.0918 8.68861 20.777 8.68861 20.3887C8.68861 20.0004 8.3738 19.6855 7.98548 19.6855Z" fill="white"/>
<path d="M20.2031 19.1333V16.9032C20.2031 16.5149 19.8883 16.2001 19.5 16.2001C19.1117 16.2001 18.7969 16.5149 18.7969 16.9032V19.1333C18.7969 19.4378 18.5491 19.6855 18.2446 19.6855H16.0145C15.6262 19.6855 15.3114 20.0004 15.3114 20.3887C15.3114 20.777 15.6262 21.0918 16.0145 21.0918H18.2446C19.3245 21.0918 20.2031 20.2132 20.2031 19.1333Z" fill="white"/>
<path d="M0.046875 12.9355C0.046875 13.3239 0.361687 13.6387 0.75 13.6387H23.25C23.6383 13.6387 23.9531 13.3239 23.9531 12.9355C23.9531 12.5472 23.6383 12.2324 23.25 12.2324H0.75C0.361687 12.2324 0.046875 12.5472 0.046875 12.9355Z" fill="white"/>
</g>
<defs>
<clipPath id="clip0_2738_6726">
<rect width="24" height="24" fill="white" transform="translate(0 0.935547)"/>
</clipPath>
</defs>
</svg>
