<svg width="24" height="25" viewBox="0 0 24 25" fill="none" xmlns="http://www.w3.org/2000/svg">
<path d="M12 9.69702C11.5858 9.69702 11.25 9.36124 11.25 8.94702V5.94702C11.25 5.53281 11.5858 5.19702 12 5.19702C12.4142 5.19702 12.75 5.53281 12.75 5.94702V8.94702C12.75 9.36124 12.4142 9.69702 12 9.69702Z" fill="white"/>
<path fill-rule="evenodd" clip-rule="evenodd" d="M4 8.19702C5.51878 8.19702 6.75 9.42824 6.75 10.947C6.75 12.4658 5.51878 13.697 4 13.697C2.48122 13.697 1.25 12.4658 1.25 10.947C1.25 9.42824 2.48122 8.19702 4 8.19702ZM5.25 10.947C5.25 10.2567 4.69036 9.69702 4 9.69702C3.30964 9.69702 2.75 10.2567 2.75 10.947C2.75 11.6374 3.30964 12.197 4 12.197C4.69036 12.197 5.25 11.6374 5.25 10.947Z" fill="white"/>
<path fill-rule="evenodd" clip-rule="evenodd" d="M14.75 12.947C14.75 14.4658 13.5188 15.697 12 15.697C10.4812 15.697 9.25 14.4658 9.25 12.947C9.25 11.4282 10.4812 10.197 12 10.197C13.5188 10.197 14.75 11.4282 14.75 12.947ZM12 14.197C12.6904 14.197 13.25 13.6374 13.25 12.947C13.25 12.2567 12.6904 11.697 12 11.697C11.3096 11.697 10.75 12.2567 10.75 12.947C10.75 13.6374 11.3096 14.197 12 14.197Z" fill="white"/>
<path fill-rule="evenodd" clip-rule="evenodd" d="M22.75 14.947C22.75 16.4658 21.5188 17.697 20 17.697C18.4812 17.697 17.25 16.4658 17.25 14.947C17.25 13.4282 18.4812 12.197 20 12.197C21.5188 12.197 22.75 13.4282 22.75 14.947ZM20 16.197C20.6904 16.197 21.25 15.6374 21.25 14.947C21.25 14.2567 20.6904 13.697 20 13.697C19.3096 13.697 18.75 14.2567 18.75 14.947C18.75 15.6374 19.3096 16.197 20 16.197Z" fill="white"/>
<path d="M19.25 10.947C19.25 11.3612 19.5858 11.697 20 11.697C20.4142 11.697 20.75 11.3612 20.75 10.947V5.94702C20.75 5.53281 20.4142 5.19702 20 5.19702C19.5858 5.19702 19.25 5.53281 19.25 5.94702V10.947Z" fill="white"/>
<path d="M4 14.197C3.58579 14.197 3.25 14.5328 3.25 14.947L3.25 19.947C3.25 20.3612 3.58579 20.697 4 20.697C4.41421 20.697 4.75 20.3612 4.75 19.947L4.75 14.947C4.75 14.5328 4.41421 14.197 4 14.197Z" fill="white"/>
<path d="M11.25 19.947C11.25 20.3612 11.5858 20.697 12 20.697C12.4142 20.697 12.75 20.3612 12.75 19.947V16.947C12.75 16.5328 12.4142 16.197 12 16.197C11.5858 16.197 11.25 16.5328 11.25 16.947V19.947Z" fill="white"/>
<path d="M20 20.697C19.5858 20.697 19.25 20.3612 19.25 19.947V18.947C19.25 18.5328 19.5858 18.197 20 18.197C20.4142 18.197 20.75 18.5328 20.75 18.947V19.947C20.75 20.3612 20.4142 20.697 20 20.697Z" fill="white"/>
<path d="M3.25 5.94702C3.25 5.53281 3.58579 5.19702 4 5.19702C4.41421 5.19702 4.75 5.53281 4.75 5.94702V6.94702C4.75 7.36124 4.41421 7.69702 4 7.69702C3.58579 7.69702 3.25 7.36124 3.25 6.94702V5.94702Z" fill="white"/>
</svg>
