<svg width="44" height="45" viewBox="0 0 44 45" fill="none" xmlns="http://www.w3.org/2000/svg">
<path d="M31.8118 41.1472C25.7412 47.2178 14.5882 45.806 6.82353 38.1119C-0.870589 30.3472 -2.21177 19.1237 3.85882 13.1237L5.76471 11.2178L33.7882 39.1707L31.8118 41.1472Z" fill="#CC104A"/>
<path d="M33.6471 39.312C27.5765 45.3826 16.4235 43.9708 8.65882 36.2767C0.894118 28.512 -0.447059 17.359 5.62353 11.2884C11.6941 5.21785 22.8471 6.62962 30.5412 14.3237C32.8706 16.6531 34.6353 19.3355 35.7647 22.0179C36.1176 22.9355 36.4706 23.7826 36.6824 24.7002C38.2353 30.2061 37.2471 35.712 33.6471 39.312Z" fill="#F34B58"/>
<path d="M28.7059 16.2295C34.7059 22.2295 35.7647 30.9119 31.1059 35.6413C26.4471 40.3707 17.6941 39.2413 11.6941 33.2413C5.69412 27.2413 4.63529 18.5589 9.29412 13.8295C13.9529 9.10012 22.7059 10.2295 28.7059 16.2295Z" fill="white"/>
<path d="M26.8706 18.0649C31.2471 22.4414 32.0235 28.7943 28.6353 32.1825C25.2471 35.5708 18.8941 34.8649 14.5176 30.4178C10.1412 26.0414 9.3647 19.6884 12.7529 16.3002C16.1412 12.912 22.4941 13.6884 26.8706 18.0649Z" fill="#F34B58"/>
<path d="M24.8941 20.0413C27.7176 22.8649 28.2118 26.8884 26.0235 29.0766C23.8353 31.2649 19.8118 30.7707 16.9882 27.9472C14.1647 25.1237 13.6706 21.1002 15.8588 18.9119C18.0471 16.7237 22.1412 17.2178 24.8941 20.0413Z" fill="white"/>
<path d="M23.0588 21.8767C24.4 23.2178 24.6823 25.1943 23.6235 26.3237C22.4941 27.3826 20.5176 27.1708 19.1765 25.759C17.8353 24.4178 17.5529 22.4414 18.6118 21.3826C19.6706 20.3237 21.6471 20.5355 23.0588 21.8767Z" fill="#F34B58"/>
<g opacity="0.2">
<path d="M36.7529 24.7707L21.4353 24.8413C19.6706 24.8413 19.6 22.159 21.4353 22.159L35.8353 22.0884C36.1882 23.006 36.4706 23.8531 36.7529 24.7707Z" fill="#1D2943"/>
</g>
<path d="M10.2824 34.6532C8.44706 33.312 6.96471 31.4767 5.90588 29.5003C4.84706 27.4532 4.21177 25.1944 4.28235 22.9355C4.91765 25.1238 5.69412 27.1708 6.75294 29.0767C7.74118 30.9826 8.94118 32.8179 10.2824 34.6532Z" fill="white"/>
<path d="M40.4235 4.51191C40.9882 5.07661 40.9882 5.92367 40.4235 6.41779L22.3529 24.4178C21.8588 24.9119 21.0118 24.9119 20.4471 24.4178C19.9529 23.9237 19.9529 23.0766 20.4471 22.5119L38.5176 4.51191C39.0824 3.9472 39.9294 3.9472 40.4235 4.51191Z" fill="#1D2943"/>
<path d="M40.1412 6.62964L43.3176 7.54729C43.8823 7.68846 44.0941 8.39434 43.6706 8.81787L42.8235 9.66493C42.4706 10.0179 41.9059 10.1591 41.4118 10.0179L40.3529 9.73552L40.5647 9.94729C41.1294 10.512 41.1294 11.4296 40.5647 11.9943L38.8 13.7591C38.4471 14.112 37.8824 14.2532 37.3882 14.112L33.7176 13.0532L40.1412 6.62964Z" fill="#FFD06C"/>
<path d="M38.3059 4.72371L37.3882 1.54724C37.2471 0.982532 36.5412 0.770767 36.1176 1.1943L33.5765 3.73547C33.2235 4.08841 33.0824 4.65312 33.2235 5.14724L33.5059 6.20606L32.8 5.50018C32.5176 5.21783 32.0235 5.21783 31.7412 5.50018L31.1765 6.13547C30.8235 6.48841 30.6824 7.05312 30.8235 7.54724L31.8824 11.1472L38.3059 4.72371Z" fill="#FFD06C"/>
<path d="M33.4353 10.7943C34.0706 9.94726 34.8471 9.1002 35.6235 8.32373C36.0471 7.97079 37.3176 6.7002 36.8235 7.19432C37.2471 6.84138 37.6706 6.48844 38.0941 6.1355C37.7412 6.55903 37.3882 6.98256 37.0353 7.40609C36.6823 7.82962 36.2588 8.18256 35.9059 8.60609C35.1294 9.38256 34.3529 10.0884 33.4353 10.7943Z" fill="white"/>
</svg>
